<svg xmlns="http://www.w3.org/2000/svg" viewBox="0 0 1200 750" width="1200" height="750" font-family="Segoe UI, Helvetica, Arial, sans-serif">
  <defs>
    <linearGradient id="bg3" x1="0" y1="0" x2="1" y2="1">
      <stop offset="0" stop-color="#0d0f15"/>
      <stop offset="1" stop-color="#0a0b10"/>
    </linearGradient>
    <linearGradient id="s3" x1="0" y1="0" x2="1" y2="1">
      <stop offset="0" stop-color="#7C3AED"/>
      <stop offset="1" stop-color="#2E9BF5"/>
    </linearGradient>
    <radialGradient id="glow" cx="0.5" cy="0.5" r="0.5">
      <stop offset="0" stop-color="#2E9BF5" stop-opacity="0.35"/>
      <stop offset="1" stop-color="#2E9BF5" stop-opacity="0"/>
    </radialGradient>
  </defs>
  <rect width="1200" height="750" rx="18" fill="url(#bg3)"/>
  <rect x="0.5" y="0.5" width="1199" height="749" rx="18" fill="none" stroke="#232733"/>
  <rect x="0" y="0" width="1200" height="64" rx="18" fill="#12141c"/>
  <rect x="0" y="46" width="1200" height="18" fill="#12141c"/>
  <text x="34" y="40" fill="url(#s3)" font-size="26" font-weight="800" font-family="Georgia, serif">S</text>
  <text x="66" y="40" fill="#e8eaf0" font-size="18" font-weight="600">Decision graph</text>
  <text x="1120" y="40" fill="#8b90a6" font-size="14" text-anchor="end">128 decisions · 41 PRs</text>
  <circle cx="600" cy="410" r="230" fill="url(#glow)"/>
  <!-- edges -->
  <g stroke="#2a2f3d" stroke-width="2">
    <line x1="600" y1="410" x2="320" y2="230"/>
    <line x1="600" y1="410" x2="880" y2="250"/>
    <line x1="600" y1="410" x2="300" y2="560"/>
    <line x1="600" y1="410" x2="900" y2="560"/>
    <line x1="320" y1="230" x2="300" y2="560"/>
    <line x1="880" y1="250" x2="900" y2="560"/>
  </g>
  <g stroke="#2E9BF5" stroke-width="2.5" stroke-opacity="0.8">
    <line x1="600" y1="410" x2="600" y2="180"/>
  </g>
  <!-- nodes -->
  <g font-size="14" fill="#c9ccd6">
    <circle cx="320" cy="230" r="30" fill="#161a24" stroke="#333a49"/><text x="320" y="290" text-anchor="middle" fill="#8b90a6">auth model</text>
    <circle cx="880" cy="250" r="30" fill="#161a24" stroke="#333a49"/><text x="880" y="310" text-anchor="middle" fill="#8b90a6">billing</text>
    <circle cx="300" cy="560" r="30" fill="#161a24" stroke="#333a49"/><text x="300" y="620" text-anchor="middle" fill="#8b90a6">db schema</text>
    <circle cx="900" cy="560" r="30" fill="#161a24" stroke="#333a49"/><text x="900" y="620" text-anchor="middle" fill="#8b90a6">queue</text>
    <circle cx="600" cy="180" r="34" fill="#0c1420" stroke="#2E9BF5"/><text x="600" y="130" text-anchor="middle" fill="#8ec5ff">LLM provider</text>
    <circle cx="600" cy="410" r="46" fill="url(#s3)"/><text x="600" y="415" text-anchor="middle" fill="#ffffff" font-weight="700" font-size="15">Slovey</text>
  </g>
  <rect x="40" y="682" width="150" height="34" rx="17" fill="#14171f" stroke="#232733"/>
  <text x="60" y="704" fill="#8b90a6" font-size="14">▸ Decision graph</text>
  <text x="1160" y="704" fill="#5a5f70" font-size="13" text-anchor="end">preview</text>
</svg>
